<?xml version="1.0" standalone="no"?>
<!DOCTYPE svg PUBLIC "-//W3C//DTD SVG 20010904//EN"
 "http://www.w3.org/TR/2001/REC-SVG-20010904/DTD/svg10.dtd">
<svg version="1.0" xmlns="http://www.w3.org/2000/svg"
 width="403.000000pt" height="401.000000pt" viewBox="0 0 403.000000 401.000000"
 preserveAspectRatio="xMidYMid meet">

<g transform="translate(0.000000,401.000000) scale(0.100000,-0.100000)"
fill="#000000" stroke="none">
<path d="M1838 3758 c-26 -62 -54 -130 -63 -152 l-16 -38 38 7 c21 3 39 10 41
14 10 27 33 43 69 48 38 5 43 3 54 -21 10 -21 19 -26 51 -26 21 0 38 2 38 5 0
10 -154 275 -160 275 -3 0 -27 -51 -52 -112z m77 -38 l16 -30 -30 0 c-29 0
-30 1 -20 30 6 17 13 30 15 30 2 0 10 -13 19 -30z"/>
<path d="M2641 3757 c-5 -12 -30 -76 -57 -141 -45 -114 -46 -119 -29 -133 11
-7 23 -12 28 -10 13 4 118 269 113 283 -2 6 -14 14 -26 17 -15 4 -23 0 -29
-16z"/>
<path d="M2079 3748 c0 -13 -6 -74 -13 -136 l-12 -113 30 3 c29 3 31 6 34 51
3 49 11 57 32 32 22 -27 75 -19 104 16 54 63 22 159 -53 159 -20 0 -42 -5 -49
-12 -9 -9 -12 -8 -12 5 0 12 -8 17 -30 17 -24 0 -30 -4 -31 -22z m135 -60 c12
-20 2 -44 -27 -62 -13 -8 -22 -6 -39 11 -19 19 -20 26 -10 48 9 20 18 26 39
23 14 -2 31 -11 37 -20z"/>
<path d="M2311 3616 c-33 -119 -37 -146 -22 -146 5 0 16 -3 25 -6 17 -6 19 -3
36 64 l11 43 20 -25 c35 -44 106 -28 134 29 19 41 19 58 0 95 -16 31 -50 45
-90 38 -14 -3 -26 0 -29 8 -3 8 -16 14 -29 14 -23 0 -27 -9 -56 -114z m130 44
c12 -7 19 -21 19 -40 0 -23 -5 -31 -25 -36 -15 -4 -32 -1 -40 6 -20 17 -19 57
3 69 21 13 20 13 43 1z"/>
<path d="M1482 3688 c-27 -13 -38 -49 -23 -76 7 -13 26 -22 56 -27 55 -8 57
-31 3 -27 -26 2 -37 -2 -42 -14 -8 -22 10 -34 52 -34 112 0 128 113 17 122
-46 3 -46 23 0 23 23 1 31 6 33 23 3 19 -1 22 -35 21 -21 0 -48 -5 -61 -11z"/>
<path d="M2759 3674 c-9 -11 -10 -20 -2 -32 14 -22 43 -22 57 1 9 15 7 21 -8
33 -25 18 -31 18 -47 -2z"/>
<path d="M1343 3635 l-22 -16 26 -53 c27 -57 26 -86 -5 -86 -13 0 -27 19 -47
59 l-28 60 -29 -15 -28 -15 35 -69 c39 -78 67 -94 110 -66 14 9 25 20 25 24 0
4 12 8 26 9 14 0 30 5 35 10 9 9 -58 173 -70 173 -4 0 -16 -7 -28 -15z"/>
<path d="M1058 3629 c-10 -5 -18 -15 -18 -21 0 -14 151 -258 159 -258 13 1 43
29 40 38 -8 21 -154 252 -159 252 -3 0 -13 -5 -22 -11z"/>
<path d="M2686 3523 c-35 -72 -37 -78 -20 -90 10 -7 21 -13 26 -13 4 0 26 36
48 80 38 76 39 80 21 90 -11 5 -23 10 -28 10 -5 0 -26 -35 -47 -77z"/>
<path d="M2840 3506 c0 -18 7 -25 29 -29 29 -6 46 -30 35 -49 -4 -5 -13 -3
-23 6 -29 26 -70 37 -94 25 -44 -24 -48 -49 -12 -84 13 -14 36 -25 50 -25 15
0 25 -6 25 -15 0 -8 9 -19 20 -25 18 -10 24 -4 60 51 22 34 40 68 40 74 0 22
-43 67 -76 81 -46 19 -54 18 -54 -10z m26 -101 c16 -13 17 -16 4 -25 -20 -13
-23 -13 -45 3 -19 14 -13 37 9 37 7 0 21 -7 32 -15z"/>
<path d="M976 3419 c-14 -11 -26 -30 -26 -42 0 -16 -3 -18 -12 -9 -9 9 -16 8
-30 -5 -10 -9 -18 -20 -18 -25 0 -5 36 -54 81 -109 80 -100 81 -100 103 -82
11 10 22 18 23 18 1 1 -11 18 -28 39 -17 20 -30 38 -28 39 2 1 17 9 34 17 64
33 70 96 15 151 -34 35 -76 38 -114 8z m74 -53 c28 -35 -11 -93 -47 -70 -36
22 -23 84 17 84 10 0 23 -7 30 -14z"/>
<path d="M2981 3343 c-61 -67 -61 -68 -41 -87 20 -20 20 -20 68 27 51 50 63
55 81 33 10 -11 5 -22 -21 -53 -65 -78 -62 -70 -34 -88 26 -17 26 -17 66 26
21 24 44 57 51 72 10 24 9 31 -11 52 -13 14 -32 25 -42 25 -10 0 -18 6 -18 13
0 8 -8 22 -19 31 -18 16 -21 14 -80 -51z"/>
<path d="M785 3245 c-14 -13 -25 -33 -25 -43 0 -12 -6 -19 -16 -18 -9 0 -21
-7 -27 -16 -13 -20 -5 -30 106 -131 l78 -70 22 22 22 21 -45 39 -44 38 32 6
c25 5 36 15 48 42 12 30 12 39 0 69 -26 63 -108 85 -151 41z m83 -47 c16 -16
15 -53 -3 -68 -19 -16 -45 -10 -61 15 -26 39 31 86 64 53z"/>
<path d="M1958 3254 c-4 -4 -22 -7 -40 -6 -113 3 -197 -181 -138 -303 l22 -45
-31 -55 c-17 -30 -31 -59 -31 -65 0 -14 56 -13 83 1 12 6 32 20 44 31 14 13
26 17 35 12 7 -5 17 -9 22 -9 5 0 15 -16 21 -35 10 -29 17 -35 39 -33 14 1 26
-2 26 -8 0 -5 5 -9 11 -9 8 0 8 4 0 14 -9 11 -9 15 1 19 7 2 10 7 6 11 -3 4
-18 0 -32 -10 -31 -19 -29 -20 -45 25 -14 42 -10 47 22 26 24 -15 25 -15 30
12 6 31 -8 46 -35 39 -19 -4 -21 7 -9 38 5 14 10 16 15 8 5 -9 13 -9 27 -2 20
11 54 0 61 -20 2 -6 11 -8 21 -5 9 4 14 12 10 18 -9 15 -13 59 -7 79 3 9 12
19 21 23 14 5 14 3 -2 -15 -16 -18 -17 -22 -3 -37 9 -10 17 -24 20 -32 3 -10
7 -9 18 5 13 16 13 17 0 9 -13 -8 -13 -6 -1 8 12 15 10 18 -9 25 -19 7 -20 10
-7 20 11 10 17 9 27 -3 7 -8 9 -15 4 -16 -17 -1 31 -18 54 -18 14 -1 25 7 30
19 7 19 8 19 40 -1 36 -23 36 -29 0 -126 -17 -47 -38 -70 -38 -43 0 6 -7 10
-15 10 -9 0 -19 10 -24 22 -7 20 -8 20 -14 -8 -9 -46 -65 -117 -88 -111 -10 3
-19 1 -19 -4 0 -19 49 -8 67 14 18 24 18 23 21 -50 2 -41 8 -86 14 -101 6 -15
12 -52 13 -82 3 -70 1 -65 30 -78 14 -6 25 -16 25 -22 0 -16 -30 -12 -36 5 -4
8 -11 15 -16 15 -7 0 -7 -4 0 -13 14 -17 -84 -63 -153 -72 -46 -5 -55 -3 -105
30 -33 21 -61 33 -72 29 -17 -5 -18 4 -18 109 l0 115 -57 6 c-135 14 -420 28
-462 23 -31 -4 -39 -3 -26 3 42 18 -89 7 -312 -26 l-43 -6 0 -274 0 -274 25 0
c37 0 30 -18 -7 -22 -31 -3 -33 -5 -36 -48 -2 -25 -7 -49 -12 -54 -5 -4 -7
-22 -5 -40 2 -17 7 -60 10 -95 5 -64 5 -64 -15 -46 -22 20 -35 13 -42 -20 -3
-17 -6 -16 -21 11 -26 50 -67 94 -87 94 -11 0 -24 8 -29 18 -6 9 -11 12 -11 5
0 -6 4 -14 9 -17 5 -3 7 -15 4 -26 -9 -32 25 -106 69 -152 22 -23 35 -44 29
-46 -21 -7 -11 -42 23 -79 40 -45 68 -98 64 -120 -2 -8 -16 12 -33 44 -16 33
-40 64 -52 70 -13 6 -23 10 -23 10 0 -1 9 -31 20 -66 10 -35 17 -68 15 -72 -3
-4 2 -23 10 -43 20 -48 19 -53 -8 -28 -27 25 -88 52 -119 52 -20 0 -19 -2 11
-24 18 -14 40 -34 47 -45 13 -18 12 -20 -6 -18 -11 1 -20 5 -20 9 0 4 -5 8
-12 8 -6 0 -21 8 -32 17 -20 17 -20 17 -7 1 11 -15 11 -18 -1 -18 -8 0 -19 5
-26 12 -13 13 -27 5 -17 -11 3 -6 19 -11 34 -11 20 0 34 -8 45 -25 9 -14 24
-37 33 -52 16 -24 12 -23 -37 13 l-55 39 26 -35 c41 -56 45 -64 26 -57 -10 4
-25 10 -34 14 -10 4 -3 -7 16 -23 l34 -29 -43 -7 c-43 -8 -69 -22 -58 -33 36
-36 695 -75 1258 -75 562 0 1194 36 1250 70 20 12 4 27 -37 34 -21 4 -51 9
-68 13 l-30 6 40 19 40 19 -47 -3 c-27 -2 -48 -2 -48 -1 0 6 48 27 75 34 28 6
26 7 -13 8 -24 1 -52 -4 -63 -9 -23 -13 -24 -7 -2 26 9 14 33 34 53 44 20 10
49 34 63 54 l27 35 -33 -10 c-30 -8 -60 -36 -115 -105 -23 -28 -24 -28 -17 -4
4 14 14 39 23 55 14 30 14 30 -5 12 -11 -9 -23 -14 -27 -10 -4 5 -6 4 -5 -2 4
-11 -28 -75 -37 -75 -4 0 -3 17 0 38 6 36 6 37 -8 12 l-15 -25 -1 36 c0 28 5
38 19 42 12 3 21 18 25 42 l7 38 20 -32 c10 -17 23 -31 28 -31 5 0 21 15 35
32 17 23 21 35 13 40 -8 5 -6 13 8 28 16 18 17 23 5 30 -20 13 -82 1 -97 -18
-12 -14 -13 -14 -13 0 0 35 -39 53 -114 53 -39 0 -72 2 -74 5 -1 3 36 44 83
92 47 47 82 81 79 75 -5 -8 -2 -8 7 1 7 6 24 12 37 12 22 0 23 -2 11 -17 -12
-15 -12 -16 4 -10 10 4 25 7 32 7 16 0 29 31 16 40 -7 3 -1 20 14 42 31 46 32
58 3 31 -13 -11 -37 -28 -55 -37 -18 -9 -38 -26 -44 -37 -8 -16 -13 -18 -19
-9 -4 7 -13 9 -21 5 -17 -10 -9 -2 55 56 27 24 47 36 43 26 -6 -16 -5 -16 26
0 17 9 35 16 40 15 13 -4 32 49 20 56 -5 4 -10 30 -9 57 1 50 -2 53 -38 39
-15 -6 -17 -4 -11 14 5 19 2 22 -22 22 -15 0 -41 -7 -57 -15 -24 -13 -31 -13
-38 -3 -11 19 -10 28 5 25 8 -1 13 13 15 41 2 32 0 42 -12 42 -25 0 -35 30
-20 59 19 36 17 65 -6 103 -11 18 -20 45 -20 59 0 55 -52 226 -95 315 -76 156
-168 235 -335 289 -30 9 -73 31 -94 48 -35 27 -42 29 -70 19 -38 -15 -44 -9
-85 75 -17 34 -35 64 -41 68 -5 3 -7 12 -3 21 6 17 -35 66 -49 58 -5 -3 -20 2
-34 11 -27 18 -115 31 -126 19z m37 -404 c3 -5 2 -10 -4 -10 -5 0 -13 5 -16
10 -3 6 -2 10 4 10 5 0 13 -4 16 -10z m645 -66 c32 -37 50 -73 50 -101 0 -10
-4 -13 -13 -7 -7 5 -6 2 3 -6 12 -11 14 -24 9 -48 -10 -49 -23 -53 -16 -5 3
29 1 40 -7 37 -7 -3 -10 -21 -9 -47 l3 -42 -14 30 c-19 39 -20 25 -2 -19 7
-18 14 -72 15 -119 1 -48 4 -95 8 -104 6 -17 5 -17 -14 0 -45 40 -205 43 -251
4 -13 -10 -14 -8 -8 18 4 17 15 36 24 44 16 13 16 13 0 8 -31 -11 -20 11 41
75 32 35 63 74 70 88 10 21 9 22 -1 6 -7 -11 -39 -49 -72 -84 -58 -64 -59 -64
-54 -31 3 18 -1 61 -9 94 -8 33 -12 71 -8 85 3 14 8 36 11 50 7 33 41 87 62
100 9 5 47 10 83 10 64 0 68 -1 99 -36z m-420 -15 c0 -6 -4 -7 -10 -4 -5 3
-10 11 -10 16 0 6 5 7 10 4 6 -3 10 -11 10 -16z m-10 -54 c0 -19 -5 -35 -11
-35 -5 0 -7 -4 -4 -10 3 -5 1 -10 -5 -10 -7 0 -9 8 -5 20 4 11 2 20 -4 20 -6
0 -11 5 -11 10 0 6 7 10 15 10 18 0 20 16 3 23 -8 3 -6 6 5 6 13 1 17 -7 17
-34z m48 -88 c2 -26 -1 -55 -7 -64 -8 -15 -9 -14 -9 7 0 14 -3 45 -7 69 -6 34
-4 42 6 39 9 -3 15 -23 17 -51z m-71 -14 c-3 -10 -5 -4 -5 12 0 17 2 24 5 18
2 -7 2 -21 0 -30z m-919 -265 l-3 -293 -2 287 c-3 262 -5 287 -21 291 -13 4
-11 5 6 6 l22 1 -2 -292z m-91 276 c-3 -3 -12 -4 -19 -1 -8 3 -5 6 6 6 11 1
17 -2 13 -5z m281 -1 c-15 -2 -42 -2 -60 0 -18 2 -6 4 27 4 33 0 48 -2 33 -4z
m160 -10 c-15 -2 -42 -2 -60 0 -18 2 -6 4 27 4 33 0 48 -2 33 -4z m109 -365
c-1 -68 -3 -13 -3 122 0 135 2 190 3 123 2 -68 2 -178 0 -245z m79 292 c20 0
24 -5 24 -30 0 -29 -2 -30 -42 -30 -42 0 -43 1 -41 32 1 18 2 35 2 37 1 2 8 0
17 -3 9 -3 27 -6 40 -6z m427 -119 c-9 -11 -33 27 -27 43 6 16 9 14 19 -10 7
-16 10 -31 8 -33z m-338 -50 c3 -5 -3 -12 -12 -14 -10 -2 -6 -3 8 -1 15 2 40
-7 60 -20 30 -20 46 -23 117 -22 64 1 83 4 87 16 7 23 44 42 67 34 16 -5 18
-8 7 -16 -10 -6 -7 -8 11 -6 18 2 24 -1 21 -12 -2 -8 -4 -20 -4 -27 0 -7 -7
-15 -15 -18 -12 -4 -12 -8 -2 -20 12 -14 15 -14 30 0 16 15 18 14 23 -7 7 -24
-10 -42 -28 -29 -14 10 -57 12 -50 2 2 -5 -8 -11 -24 -13 -19 -3 -27 0 -24 8
2 7 -5 11 -19 10 -14 -1 -22 -7 -20 -16 1 -10 -4 -8 -16 6 -9 11 -23 19 -30
16 -6 -2 -12 1 -12 6 0 6 -16 10 -35 9 -19 -1 -33 -6 -31 -12 2 -5 17 -9 35
-9 17 1 31 -2 31 -8 0 -5 5 -6 12 -2 6 4 8 3 5 -3 -4 -7 -22 -8 -49 -3 -23 5
-51 4 -63 0 -16 -6 -21 -4 -22 11 -1 10 4 19 12 19 8 0 16 4 19 8 3 5 -7 7
-22 4 -35 -5 -76 33 -52 48 15 10 12 10 -72 14 -31 1 -39 19 -12 25 10 2 24 9
32 17 16 16 28 18 37 5z m632 -8 c-4 -3 -2 -12 4 -20 6 -7 8 -13 3 -13 -5 -1
6 -7 24 -15 18 -8 35 -20 38 -28 7 -20 -30 -160 -44 -165 -8 -2 -10 3 -5 15 6
17 5 17 -13 1 -28 -24 -101 -41 -148 -34 -25 4 -61 0 -90 -9 -27 -8 -82 -15
-123 -15 -41 0 -72 -4 -69 -9 3 -5 -16 -7 -42 -5 -35 3 -40 1 -22 -5 21 -7 15
-9 -35 -15 -33 -4 -67 -10 -77 -12 -9 -3 -20 1 -24 7 -5 8 -3 9 6 4 9 -6 11
-4 6 4 -6 10 -12 9 -24 -2 -10 -7 -34 -15 -54 -16 -29 -1 -38 2 -38 15 0 13 7
15 33 10 26 -5 39 -1 57 14 25 22 20 26 -11 10 -12 -7 -25 -7 -36 -1 -16 8
-14 11 9 22 15 6 29 17 32 25 3 8 -4 7 -24 -4 -31 -18 -57 -7 -27 12 10 6 26
17 35 24 15 11 14 11 -6 2 -25 -12 -57 -6 -48 9 3 5 27 14 53 20 44 12 52 11
105 -15 l58 -28 95 17 c69 13 121 29 187 62 51 25 104 46 118 46 16 1 19 3 8
6 -13 3 -18 15 -18 39 0 31 2 34 19 24 31 -16 46 -13 30 6 -12 15 -11 16 8 10
12 -4 24 -2 28 4 3 5 11 10 17 10 6 0 8 -3 5 -7z m-984 -73 c-3 -11 -10 -23
-16 -27 -6 -4 -7 -1 -2 7 5 8 1 18 -10 27 -18 12 -17 13 7 13 21 0 25 -4 21
-20z m-96 -47 c-3 -10 -5 -2 -5 17 0 19 2 27 5 18 2 -10 2 -26 0 -35z m173 30
c-1 -16 -39 -57 -46 -50 -10 10 17 57 33 57 7 0 13 -3 13 -7z m485 -76 l80
-12 -76 -13 c-69 -12 -80 -11 -113 4 -25 12 -32 20 -24 26 16 10 35 9 133 -5z
m-1122 -174 c-7 -2 -21 -2 -30 0 -10 3 -4 5 12 5 17 0 24 -2 18 -5z m250 -10
c-29 -2 -77 -2 -105 0 -29 2 -6 3 52 3 58 0 81 -1 53 -3z m600 0 c-19 -4 -21
-8 -13 -24 6 -10 19 -19 30 -19 10 0 22 -4 25 -10 4 -7 -80 -10 -243 -10
l-250 0 -4 30 -4 29 130 4 c208 4 353 5 329 0z m157 3 c0 -3 -4 -8 -10 -11 -5
-3 -10 -1 -10 4 0 6 5 11 10 11 6 0 10 -2 10 -4z m1061 -94 c-29 -35 -61 -64
-100 -87 -8 -4 17 23 55 61 38 38 71 68 73 67 1 -1 -11 -19 -28 -41z m-1165
-37 c7 -27 13 -75 14 -105 0 -30 7 -95 15 -145 38 -235 9 -311 -140 -359 -58
-19 -231 -46 -293 -46 -29 0 -45 -5 -48 -15 -4 -8 -17 -15 -30 -15 l-24 0 0
349 c0 192 -3 356 -6 365 -5 14 21 16 228 19 128 1 242 3 252 2 14 0 22 -12
32 -50z m784 -302 c-24 -27 -50 -54 -58 -60 -17 -14 -72 -18 -72 -5 0 4 32 27
71 52 39 24 75 50 81 57 6 8 13 11 16 8 3 -2 -14 -26 -38 -52z m-1857 -325 c5
-19 5 -19 -14 -2 -22 20 -25 36 -5 28 8 -3 16 -14 19 -26z m1057 -52 c0 -16
-36 -20 -290 -36 -91 -6 -173 -12 -182 -14 -10 -2 -18 3 -20 13 -3 14 23 18
212 32 289 22 280 21 280 5z m-490 -90 c0 -3 -4 -8 -10 -11 -5 -3 -10 -1 -10
4 0 6 5 11 10 11 6 0 10 -2 10 -4z m908 -3 c-10 -2 -26 -2 -35 0 -10 3 -2 5
17 5 19 0 27 -2 18 -5z"/>
<path d="M2419 2733 c-13 -16 -12 -17 4 -4 16 13 21 21 13 21 -2 0 -10 -8 -17
-17z"/>
<path d="M2411 2646 c-6 -25 -11 -53 -10 -63 0 -10 7 9 15 41 8 33 13 61 10
63 -2 2 -9 -16 -15 -41z"/>
<path d="M2415 2549 c-4 -6 -5 -12 -2 -15 2 -3 7 2 10 11 7 17 1 20 -8 4z"/>
<path d="M2508 2443 c6 -2 18 -2 25 0 6 3 1 5 -13 5 -14 0 -19 -2 -12 -5z"/>
<path d="M2448 2433 c7 -3 16 -2 19 1 4 3 -2 6 -13 5 -11 0 -14 -3 -6 -6z"/>
<path d="M2578 2433 c7 -3 16 -2 19 1 4 3 -2 6 -13 5 -11 0 -14 -3 -6 -6z"/>
<path d="M2209 2294 c-12 -14 -11 -16 5 -13 11 2 21 10 24 17 5 17 -13 15 -29
-4z"/>
<path d="M2499 2163 c-13 -16 -12 -17 4 -4 9 7 17 15 17 17 0 8 -8 3 -21 -13z"/>
<path d="M1895 2120 c-3 -6 1 -7 9 -4 18 7 21 14 7 14 -6 0 -13 -4 -16 -10z"/>
<path d="M1607 1894 c-4 -4 -7 -27 -7 -51 l0 -44 103 3 102 3 0 45 0 45 -95 3
c-53 1 -99 0 -103 -4z m96 -11 c-18 -2 -48 -2 -65 0 -18 2 -4 4 32 4 36 0 50
-2 33 -4z m45 -70 c-21 -2 -55 -2 -75 0 -21 2 -4 4 37 4 41 0 58 -2 38 -4z"/>
<path d="M1432 1305 c0 -16 2 -22 5 -12 2 9 2 23 0 30 -3 6 -5 -1 -5 -18z"/>
<path d="M3145 3185 c-35 -34 -34 -93 1 -134 27 -33 55 -39 73 -18 8 10 4 19
-19 36 -35 25 -38 51 -9 77 19 17 23 17 47 3 15 -8 28 -25 30 -37 4 -26 10
-27 33 -6 17 15 17 19 4 45 -33 63 -115 80 -160 34z"/>
<path d="M524 3019 c14 -24 52 -88 84 -141 31 -54 59 -98 62 -98 3 0 14 13 23
30 16 27 17 31 2 54 -15 22 -14 26 6 60 17 30 27 36 54 36 24 0 37 7 50 26 9
14 13 30 8 34 -4 4 -62 13 -128 19 -66 7 -135 15 -154 18 l-34 6 27 -44z m141
-39 c3 -5 0 -19 -8 -30 -14 -20 -14 -20 -31 4 -9 14 -16 28 -16 31 0 9 49 5
55 -5z"/>
<path d="M3290 3037 c-48 -24 -64 -92 -33 -137 24 -35 44 -49 69 -50 17 0 20
5 17 23 -3 13 -14 27 -26 32 -23 11 -33 36 -23 62 5 12 16 1 42 -40 20 -32 40
-57 45 -57 23 0 49 42 49 78 -1 75 -74 122 -140 89z m85 -57 c10 -11 15 -26
11 -37 -6 -15 -10 -13 -26 12 -31 47 -20 64 15 25z"/>
<path d="M2157 2930 c3 -11 7 -20 9 -20 2 0 4 9 4 20 0 11 -4 20 -9 20 -5 0
-7 -9 -4 -20z"/>
<path d="M2137 2880 c3 -11 7 -20 8 -20 1 0 5 9 8 20 3 12 0 20 -8 20 -8 0
-11 -8 -8 -20z"/>
<path d="M2054 2762 c4 -7 2 -12 -3 -12 -6 0 -11 -7 -11 -15 0 -16 17 -19 44
-9 24 9 19 23 -6 16 -14 -3 -19 -1 -14 6 3 6 1 14 -5 18 -8 4 -9 3 -5 -4z"/>
<path d="M820 2225 c-19 -23 -15 -58 12 -104 24 -40 26 -41 32 -19 12 47 6
104 -13 122 -16 15 -19 15 -31 1z"/>
<path d="M3010 2108 c-27 -45 -25 -50 10 -30 31 18 44 38 34 53 -10 17 -24 9
-44 -23z"/>
<path d="M787 2066 c-6 -15 6 -33 36 -56 17 -12 18 -11 11 16 -11 48 -36 69
-47 40z"/>
<path d="M876 1975 c3 -33 9 -64 14 -68 11 -12 23 43 12 56 -5 7 -14 26 -21
42 -9 26 -10 22 -5 -30z"/>
<path d="M820 1955 c7 -9 15 -13 17 -11 7 7 -7 26 -19 26 -6 0 -6 -6 2 -15z"/>
<path d="M3115 1739 c-4 -6 -5 -12 -2 -15 7 -7 37 7 37 17 0 13 -27 11 -35 -2z"/>
<path d="M715 1690 c3 -5 8 -10 11 -10 2 0 4 5 4 10 0 6 -5 10 -11 10 -5 0 -7
-4 -4 -10z"/>
<path d="M672 1652 c36 -80 73 -144 89 -152 11 -6 33 -29 49 -52 39 -53 38
-46 -5 44 -23 49 -52 89 -86 120 -28 26 -49 44 -47 40z"/>
<path d="M1330 695 c0 -42 3 -55 15 -55 9 0 15 9 16 23 l0 22 16 -22 c20 -30
49 -32 33 -3 -8 14 -7 25 2 39 17 28 -5 51 -48 51 l-34 0 0 -55z m58 17 c2 -7
-3 -12 -12 -12 -9 0 -16 7 -16 16 0 17 22 14 28 -4z"/>
<path d="M1710 740 c0 -5 5 -10 10 -10 6 0 10 5 10 10 0 6 -4 10 -10 10 -5 0
-10 -4 -10 -10z"/>
<path d="M1873 734 c-4 -12 2 -24 20 -38 30 -24 34 -36 12 -36 -8 0 -15 5 -15
12 0 9 -3 9 -12 0 -18 -18 3 -34 38 -30 40 4 46 43 10 60 -30 13 -35 29 -8 25
9 -1 19 3 22 8 3 6 -10 11 -28 13 -23 2 -34 -1 -39 -14z"/>
<path d="M2210 740 c0 -5 7 -10 15 -10 8 0 15 5 15 10 0 6 -7 10 -15 10 -8 0
-15 -4 -15 -10z"/>
<path d="M1435 690 c-8 -25 10 -50 36 -50 27 0 33 18 7 23 -19 4 -18 5 6 6 21
1 27 5 22 17 -3 9 -6 18 -6 20 0 2 -13 4 -29 4 -21 0 -32 -6 -36 -20z"/>
<path d="M1520 661 c0 -52 17 -79 27 -42 3 12 13 21 23 21 25 0 43 25 35 50
-5 16 -15 20 -46 20 l-39 0 0 -49z m60 14 c0 -8 -7 -15 -15 -15 -8 0 -15 7
-15 15 0 8 7 15 15 15 8 0 15 -7 15 -15z"/>
<path d="M1630 700 c0 -5 6 -7 14 -4 8 3 17 1 21 -5 4 -7 -4 -11 -19 -11 -19
0 -26 -5 -26 -20 0 -16 7 -20 35 -20 33 0 35 2 35 35 0 32 -2 35 -30 35 -16 0
-30 -4 -30 -10z m37 -36 c-3 -3 -12 -4 -19 -1 -8 3 -5 6 6 6 11 1 17 -2 13 -5z"/>
<path d="M1710 675 c0 -19 5 -35 10 -35 6 0 10 16 10 35 0 19 -4 35 -10 35 -5
0 -10 -16 -10 -35z"/>
<path d="M1750 675 c0 -24 5 -35 15 -35 9 0 15 9 15 21 0 12 8 28 18 35 15 12
14 13 -15 14 -31 0 -33 -2 -33 -35z"/>
<path d="M1972 693 c-14 -26 3 -53 33 -53 34 0 40 18 8 23 l-28 4 28 2 c21 1
28 5 25 19 -5 24 -54 28 -66 5z"/>
<path d="M2060 675 c0 -19 5 -35 10 -35 6 0 10 11 10 25 0 16 6 25 15 25 8 0
15 5 15 10 0 6 -11 10 -25 10 -22 0 -25 -4 -25 -35z"/>
<path d="M2137 675 c9 -19 20 -35 23 -35 3 0 14 16 23 35 14 30 15 35 2 35 -8
0 -15 -8 -15 -17 -1 -17 -1 -17 -14 0 -24 31 -37 19 -19 -18z"/>
<path d="M2210 675 c0 -24 5 -35 15 -35 10 0 15 11 15 35 0 24 -5 35 -15 35
-10 0 -15 -11 -15 -35z"/>
<path d="M2259 694 c-9 -11 -10 -20 -2 -32 11 -19 63 -29 63 -13 0 6 -9 11
-20 11 -11 0 -20 7 -20 15 0 8 9 15 20 15 11 0 20 5 20 10 0 16 -46 12 -61 -6z"/>
<path d="M2335 690 c-8 -27 11 -50 41 -50 34 0 39 18 7 23 l-28 4 28 2 c41 2
33 35 -10 39 -25 2 -33 -1 -38 -18z"/>
<path d="M2430 695 c0 -7 8 -19 18 -24 15 -9 14 -10 -6 -11 -13 0 -20 -4 -17
-10 3 -5 17 -10 31 -10 29 0 33 26 7 46 -17 13 -17 14 0 8 9 -3 17 -1 17 5 0
6 -11 11 -25 11 -15 0 -25 -6 -25 -15z"/>
</g>
</svg>
