<?xml version="1.0" encoding="UTF-8" standalone="no" ?>
<!DOCTYPE svg PUBLIC "-//W3C//DTD SVG 1.1//EN" "http://www.w3.org/Graphics/SVG/1.1/DTD/svg11.dtd">
<svg xmlns="http://www.w3.org/2000/svg" xmlns:xlink="http://www.w3.org/1999/xlink" version="1.1" width="1080" height="1080" viewBox="0 0 1080 1080" xml:space="preserve">
<desc>Created with Fabric.js 5.2.4</desc>
<defs>
</defs>
<g transform="matrix(1 0 0 1 540 540)" id="395d8267-2e96-462c-acb0-386d3dae471b"  >
<rect style="stroke: none; stroke-width: 1; stroke-dasharray: none; stroke-linecap: butt; stroke-dashoffset: 0; stroke-linejoin: miter; stroke-miterlimit: 4; fill: rgb(255,255,255); fill-rule: nonzero; opacity: 1; visibility: hidden;" vector-effect="non-scaling-stroke"  x="-540" y="-540" rx="0" ry="0" width="1080" height="1080" />
</g>
<g transform="matrix(1 0 0 1 540 540)" id="d173c4d2-9d02-468d-b359-9885b2013e3c"  >
</g>
<g transform="matrix(1 0 0 1 540 540)"  >
<g style="" vector-effect="non-scaling-stroke"   >
		<g transform="matrix(0.1 0 0 -0.1 -328.93 -124.44)"  >
<path style="stroke: none; stroke-width: 1; stroke-dasharray: none; stroke-linecap: butt; stroke-dashoffset: 0; stroke-linejoin: miter; stroke-miterlimit: 4; fill: rgb(240,241,243); fill-rule: nonzero; opacity: 1;" vector-effect="non-scaling-stroke"  transform=" translate(-5011.97, -9245)" d="M 4844 9678 C 4724 9539 4513 9295 4376 9135 C 4238 8976 4071 8781 4003 8703 C 3935 8624 3882 8560 3884 8560 C 3887 8560 3949 8590 4022 8626 C 4325 8778 4561 8847 4814 8859 L 4954 8865 L 5049 8996 C 5102 9068 5190 9189 5245 9265 C 5312 9357 5346 9396 5348 9383 C 5349 9373 5330 9259 5305 9129 C 5280 8999 5260 8887 5260 8881 C 5260 8873 5357 8870 5598 8870 L 5935 8870 L 6038 9383 C 6094 9664 6140 9903 6140 9913 C 6140 9929 6108 9930 5601 9930 L 5061 9930 L 4844 9678 z" stroke-linecap="round" />
</g>
		<g transform="matrix(0.1 0 0 -0.1 -263.92 -39.93)"  >
<path style="stroke: none; stroke-width: 1; stroke-dasharray: none; stroke-linecap: butt; stroke-dashoffset: 0; stroke-linejoin: miter; stroke-miterlimit: 4; fill: rgb(240,241,243); fill-rule: nonzero; opacity: 1;" vector-effect="non-scaling-stroke"  transform=" translate(-5662.02, -8399.98)" d="M 6266 9922 C 6264 9918 6225 9730 6180 9505 C 6135 9279 6088 9043 6075 8980 C 6057 8894 6054 8864 6063 8858 C 6070 8853 6230 8851 6419 8852 L 6763 8855 L 6806 9050 C 6830 9157 6852 9251 6855 9258 C 6859 9269 6896 9271 7048 9268 C 7260 9263 7301 9253 7376 9187 C 7429 9140 7444 9098 7438 9005 C 7430 8879 7372 8803 7253 8762 C 7209 8746 7102 8745 5995 8745 C 4733 8745 4757 8745 4555 8701 C 4362 8658 4115 8559 3945 8455 C 3474 8168 3164 7675 3060 7048 C 3049 6980 3038 6913 3035 6898 L 3030 6870 L 3365 6870 L 3700 6870 L 3700 6949 C 3700 7239 3828 7542 4033 7737 C 4189 7885 4359 7973 4600 8033 C 4684 8054 4707 8054 6085 8060 L 7485 8065 L 7581 8092 C 7873 8172 8093 8351 8209 8602 C 8273 8740 8295 8849 8294 9025 C 8294 9158 8290 9185 8267 9263 C 8217 9426 8150 9532 8017 9656 C 7861 9802 7675 9886 7435 9919 C 7346 9932 6274 9934 6266 9922 z" stroke-linecap="round" />
</g>
		<g transform="matrix(0.1 0 0 -0.1 421.69 98)"  >
<path style="stroke: none; stroke-width: 1; stroke-dasharray: none; stroke-linecap: butt; stroke-dashoffset: 0; stroke-linejoin: miter; stroke-miterlimit: 4; fill: rgb(240,241,243); fill-rule: nonzero; opacity: 1;" vector-effect="non-scaling-stroke"  transform=" translate(-12518.18, -7020.65)" d="M 11721 7944 C 11674 7904 11689 7952 11536 7357 C 11493 7192 11492 7167 11525 7135 L 11549 7110 L 12031 7110 C 12488 7110 12512 7111 12499 7128 C 12492 7137 12460 7172 12428 7206 L 12369 7267 L 12438 7526 L 12507 7785 L 12596 7788 C 12677 7790 12690 7788 12740 7763 C 12779 7743 12804 7721 12827 7687 C 12878 7611 12878 7577 12831 7401 C 12808 7317 12790 7245 12790 7240 C 12790 7235 12900 7230 13034 7228 C 13277 7225 13279 7225 13304 7201 C 13319 7187 13330 7165 13330 7151 C 13330 7137 13312 7056 13288 6973 L 13246 6820 L 12954 6820 L 12662 6820 L 12651 6788 C 12645 6770 12616 6656 12585 6535 C 12555 6414 12527 6305 12524 6293 C 12518 6272 12512 6270 12441 6270 C 12310 6271 12248 6296 12200 6369 C 12162 6426 12163 6484 12204 6658 C 12224 6742 12240 6813 12240 6816 C 12240 6818 12062 6819 11844 6818 L 11448 6815 L 11416 6780 C 11389 6750 11379 6722 11345 6585 C 11296 6389 11295 6326 11336 6243 C 11367 6182 11419 6133 11489 6098 L 11535 6075 L 12315 6072 C 12863 6070 13110 6072 13147 6080 C 13260 6105 13333 6183 13370 6323 C 13381 6368 13397 6425 13404 6450 C 13419 6500 13423 6513 13515 6855 C 13551 6987 13589 7127 13600 7165 C 13610 7204 13635 7296 13655 7370 C 13676 7444 13701 7535 13711 7571 C 13752 7714 13725 7831 13636 7905 C 13553 7973 13601 7970 12630 7970 L 11752 7970 L 11721 7944 z" stroke-linecap="round" />
</g>
		<g transform="matrix(0.1 0 0 -0.1 -300.62 60.56)"  >
<path style="stroke: none; stroke-width: 1; stroke-dasharray: none; stroke-linecap: butt; stroke-dashoffset: 0; stroke-linejoin: miter; stroke-miterlimit: 4; fill: rgb(240,241,243); fill-rule: nonzero; opacity: 1;" vector-effect="non-scaling-stroke"  transform=" translate(-5295, -7395)" d="M 5050 7868 C 5044 7839 5030 7770 5020 7715 C 5010 7660 4970 7450 4931 7249 C 4892 7047 4860 6880 4860 6876 C 4860 6873 5010 6870 5194 6870 L 5528 6870 L 5590 7188 C 5624 7362 5669 7595 5691 7705 C 5712 7815 5730 7908 5730 7913 C 5730 7917 5580 7920 5396 7920 L 5062 7920 L 5050 7868 z" stroke-linecap="round" />
</g>
		<g transform="matrix(0.1 0 0 -0.1 -219.35 60.56)"  >
<path style="stroke: none; stroke-width: 1; stroke-dasharray: none; stroke-linecap: butt; stroke-dashoffset: 0; stroke-linejoin: miter; stroke-miterlimit: 4; fill: rgb(240,241,243); fill-rule: nonzero; opacity: 1;" vector-effect="non-scaling-stroke"  transform=" translate(-6107.78, -7395)" d="M 5831 7742 C 5813 7645 5791 7534 5784 7495 C 5777 7457 5748 7308 5720 7165 C 5693 7022 5670 6897 5670 6888 C 5670 6871 5692 6870 5998 6870 C 6251 6870 6330 6873 6344 6883 C 6362 6896 6362 6897 6449 7345 C 6472 7461 6504 7626 6521 7713 C 6550 7861 6551 7872 6536 7895 L 6520 7920 L 6192 7920 L 5865 7920 L 5831 7742 z" stroke-linecap="round" />
</g>
		<g transform="matrix(0.1 0 0 -0.1 117.16 61.64)"  >
<path style="stroke: none; stroke-width: 1; stroke-dasharray: none; stroke-linecap: butt; stroke-dashoffset: 0; stroke-linejoin: miter; stroke-miterlimit: 4; fill: rgb(240,241,243); fill-rule: nonzero; opacity: 1;" vector-effect="non-scaling-stroke"  transform=" translate(-9472.8, -7384.28)" d="M 9035 7901 C 8990 7882 8993 7893 8900 7390 C 8846 7095 8844 7076 8861 7015 C 8875 6964 8954 6885 9007 6871 C 9030 6864 9172 6860 9372 6860 C 9679 6860 9703 6861 9755 6881 C 9826 6907 9911 6985 9944 7053 C 9972 7112 10092 7734 10094 7830 C 10095 7904 10081 7911 9933 7908 C 9836 7905 9818 7902 9800 7885 C 9779 7863 9772 7831 9700 7440 C 9678 7316 9656 7202 9652 7185 L 9644 7155 L 9417 7152 C 9192 7150 9190 7150 9190 7171 C 9190 7182 9210 7303 9236 7438 C 9309 7837 9311 7850 9305 7871 C 9301 7882 9289 7895 9278 7899 C 9249 7910 9059 7911 9035 7901 z" stroke-linecap="round" />
</g>
		<g transform="matrix(0.1 0 0 -0.1 -112.12 62.11)"  >
<path style="stroke: none; stroke-width: 1; stroke-dasharray: none; stroke-linecap: butt; stroke-dashoffset: 0; stroke-linejoin: miter; stroke-miterlimit: 4; fill: rgb(240,241,243); fill-rule: nonzero; opacity: 1;" vector-effect="non-scaling-stroke"  transform=" translate(-7180.05, -7379.51)" d="M 6752 7880 C 6740 7869 6730 7856 6730 7852 C 6730 7848 6710 7737 6685 7605 C 6661 7473 6622 7260 6599 7133 C 6546 6841 6537 6860 6722 6860 C 6873 6860 6882 6865 6900 6957 C 6906 6989 6917 7038 6923 7065 L 6935 7115 L 7205 7116 C 7454 7117 7479 7119 7530 7138 C 7608 7169 7683 7237 7719 7313 C 7761 7400 7807 7666 7791 7726 C 7776 7782 7743 7829 7692 7865 L 7648 7895 L 7211 7898 C 6781 7901 6774 7900 6752 7880 z M 7439 7616 C 7454 7598 7425 7433 7403 7408 C 7389 7392 7365 7390 7183 7390 L 6980 7390 L 6984 7413 C 6987 7425 6996 7473 7005 7520 C 7014 7567 7023 7611 7025 7618 C 7032 7637 7423 7635 7439 7616 z" stroke-linecap="round" />
</g>
		<g transform="matrix(0.1 0 0 -0.1 -3.24 62.06)"  >
<path style="stroke: none; stroke-width: 1; stroke-dasharray: none; stroke-linecap: butt; stroke-dashoffset: 0; stroke-linejoin: miter; stroke-miterlimit: 4; fill: rgb(240,241,243); fill-rule: nonzero; opacity: 1;" vector-effect="non-scaling-stroke"  transform=" translate(-8268.8, -7380)" d="M 7993 7881 C 7979 7868 7968 7835 7956 7773 C 7897 7453 7869 7297 7845 7170 C 7831 7090 7815 7003 7810 6977 C 7796 6911 7797 6894 7816 6876 C 7829 6862 7883 6860 8249 6860 L 8667 6860 L 8688 6883 C 8718 6915 8751 7100 8731 7124 C 8719 7138 8684 7140 8461 7140 C 8320 7140 8199 7144 8191 7149 C 8180 7156 8182 7180 8203 7296 C 8218 7373 8237 7476 8245 7525 C 8254 7575 8270 7658 8281 7712 C 8303 7823 8305 7871 8288 7888 C 8280 7896 8234 7900 8145 7900 C 8030 7900 8011 7898 7993 7881 z" stroke-linecap="round" />
</g>
		<g transform="matrix(0.1 0 0 -0.1 240.85 62.1)"  >
<path style="stroke: none; stroke-width: 1; stroke-dasharray: none; stroke-linecap: butt; stroke-dashoffset: 0; stroke-linejoin: miter; stroke-miterlimit: 4; fill: rgb(240,241,243); fill-rule: nonzero; opacity: 1;" vector-effect="non-scaling-stroke"  transform=" translate(-10709.73, -7379.61)" d="M 10435 7882 C 10303 7827 10239 7748 10206 7603 C 10172 7450 10193 7358 10278 7293 C 10338 7247 10391 7240 10672 7240 L 10923 7240 L 10917 7204 C 10906 7137 10923 7140 10540 7140 C 10132 7140 10159 7147 10135 7030 C 10126 6989 10119 6941 10118 6923 C 10116 6858 10100 6860 10549 6860 C 10906 6861 10961 6863 11002 6878 C 11147 6931 11229 7056 11247 7251 C 11252 7308 11249 7325 11228 7372 C 11213 7404 11188 7438 11167 7454 C 11102 7504 11060 7510 10778 7510 L 10520 7510 L 10520 7539 C 10520 7555 10524 7580 10530 7594 L 10540 7620 L 10881 7620 L 11222 7620 L 11250 7648 C 11271 7670 11280 7692 11290 7750 C 11306 7843 11306 7866 11290 7885 C 11279 7898 11222 7900 10876 7899 C 10523 7899 10470 7897 10435 7882 z" stroke-linecap="round" />
</g>
		<g transform="matrix(0.1 0 0 -0.1 -513.08 160.06)"  >
<path style="stroke: none; stroke-width: 1; stroke-dasharray: none; stroke-linecap: butt; stroke-dashoffset: 0; stroke-linejoin: miter; stroke-miterlimit: 4; fill: rgb(240,241,243); fill-rule: nonzero; opacity: 1;" vector-effect="non-scaling-stroke"  transform=" translate(-3170.41, -6400)" d="M 3173 6628 C 3162 6615 3089 6510 3010 6393 C 2918 6257 2869 6176 2873 6166 C 2878 6154 2895 6150 2946 6150 C 3007 6150 3014 6152 3038 6180 L 3064 6210 L 3185 6210 L 3306 6210 L 3317 6180 C 3329 6149 3329 6149 3397 6152 C 3458 6155 3465 6157 3468 6176 C 3471 6200 3346 6592 3324 6628 C 3312 6647 3301 6650 3252 6650 C 3204 6650 3190 6646 3173 6628 z M 3262 6348 C 3265 6326 3262 6325 3203 6324 C 3168 6324 3140 6325 3140 6327 C 3140 6329 3159 6359 3182 6393 L 3223 6454 L 3241 6413 C 3251 6390 3260 6361 3262 6348 z" stroke-linecap="round" />
</g>
		<g transform="matrix(0.1 0 0 -0.1 -448.66 160.06)"  >
<path style="stroke: none; stroke-width: 1; stroke-dasharray: none; stroke-linecap: butt; stroke-dashoffset: 0; stroke-linejoin: miter; stroke-miterlimit: 4; fill: rgb(240,241,243); fill-rule: nonzero; opacity: 1;" vector-effect="non-scaling-stroke"  transform=" translate(-3814.63, -6400)" d="M 3613 6638 C 3607 6631 3589 6546 3571 6450 C 3554 6354 3535 6251 3529 6221 C 3516 6157 3522 6150 3596 6150 C 3657 6150 3666 6158 3681 6228 L 3692 6280 L 3827 6280 C 4026 6280 4067 6307 4096 6456 C 4114 6553 4108 6591 4069 6624 L 4038 6650 L 3830 6650 C 3676 6650 3620 6647 3613 6638 z M 3943 6477 C 3941 6405 3933 6400 3820 6400 C 3767 6400 3721 6402 3718 6405 C 3715 6408 3729 6494 3739 6528 C 3740 6529 3786 6529 3843 6528 L 3945 6525 L 3943 6477 z" stroke-linecap="round" />
</g>
		<g transform="matrix(0.1 0 0 -0.1 -390.07 160.05)"  >
<path style="stroke: none; stroke-width: 1; stroke-dasharray: none; stroke-linecap: butt; stroke-dashoffset: 0; stroke-linejoin: miter; stroke-miterlimit: 4; fill: rgb(240,241,243); fill-rule: nonzero; opacity: 1;" vector-effect="non-scaling-stroke"  transform=" translate(-4400.5, -6400.15)" d="M 4196 6641 C 4185 6624 4109 6206 4112 6181 C 4115 6158 4120 6155 4159 6152 C 4238 6146 4248 6153 4261 6220 L 4273 6280 L 4415 6280 C 4546 6280 4560 6282 4590 6303 C 4608 6315 4632 6337 4643 6351 C 4681 6403 4704 6569 4678 6602 C 4641 6647 4625 6650 4408 6650 C 4294 6650 4199 6646 4196 6641 z M 4536 6516 C 4543 6498 4521 6417 4506 6408 C 4500 6404 4451 6400 4398 6400 C 4288 6400 4293 6396 4311 6480 L 4322 6530 L 4426 6530 C 4506 6530 4532 6527 4536 6516 z" stroke-linecap="round" />
</g>
		<g transform="matrix(0.1 0 0 -0.1 -338.07 160.18)"  >
<path style="stroke: none; stroke-width: 1; stroke-dasharray: none; stroke-linecap: butt; stroke-dashoffset: 0; stroke-linejoin: miter; stroke-miterlimit: 4; fill: rgb(240,241,243); fill-rule: nonzero; opacity: 1;" vector-effect="non-scaling-stroke"  transform=" translate(-4920.49, -6398.88)" d="M 4786 6641 C 4775 6623 4698 6180 4703 6165 C 4712 6143 5091 6142 5113 6165 C 5130 6181 5145 6254 5135 6270 C 5131 6276 5078 6280 4999 6280 C 4903 6280 4870 6283 4870 6293 C 4870 6299 4884 6378 4900 6468 C 4917 6558 4928 6636 4925 6641 C 4917 6652 4793 6653 4786 6641 z" stroke-linecap="round" />
</g>
		<g transform="matrix(0.1 0 0 -0.1 -300.72 160.11)"  >
<path style="stroke: none; stroke-width: 1; stroke-dasharray: none; stroke-linecap: butt; stroke-dashoffset: 0; stroke-linejoin: miter; stroke-miterlimit: 4; fill: rgb(240,241,243); fill-rule: nonzero; opacity: 1;" vector-effect="non-scaling-stroke"  transform=" translate(-5294.06, -6399.5)" d="M 5266 6641 C 5255 6623 5178 6180 5183 6165 C 5192 6144 5293 6144 5314 6166 C 5323 6174 5330 6185 5330 6189 C 5330 6193 5348 6294 5370 6414 C 5392 6533 5408 6636 5405 6641 C 5397 6652 5273 6653 5266 6641 z" stroke-linecap="round" />
</g>
		<g transform="matrix(0.1 0 0 -0.1 -262.84 160.14)"  >
<path style="stroke: none; stroke-width: 1; stroke-dasharray: none; stroke-linecap: butt; stroke-dashoffset: 0; stroke-linejoin: miter; stroke-miterlimit: 4; fill: rgb(240,241,243); fill-rule: nonzero; opacity: 1;" vector-effect="non-scaling-stroke"  transform=" translate(-5672.89, -6399.28)" d="M 5683 6633 C 5648 6603 5369 6178 5374 6163 C 5378 6154 5400 6150 5449 6150 C 5515 6150 5520 6152 5542 6180 L 5566 6211 L 5690 6208 C 5813 6205 5814 6205 5820 6180 C 5825 6157 5831 6155 5890 6152 C 5997 6148 5996 6137 5905 6407 L 5825 6645 L 5764 6648 C 5717 6650 5699 6647 5683 6633 z M 5753 6390 C 5763 6357 5770 6329 5770 6327 C 5770 6325 5743 6323 5710 6323 C 5677 6323 5650 6327 5650 6332 C 5650 6343 5723 6449 5731 6450 C 5734 6450 5744 6423 5753 6390 z" stroke-linecap="round" />
</g>
		<g transform="matrix(0.1 0 0 -0.1 -197.21 160.06)"  >
<path style="stroke: none; stroke-width: 1; stroke-dasharray: none; stroke-linecap: butt; stroke-dashoffset: 0; stroke-linejoin: miter; stroke-miterlimit: 4; fill: rgb(240,241,243); fill-rule: nonzero; opacity: 1;" vector-effect="non-scaling-stroke"  transform=" translate(-6329.17, -6400.07)" d="M 6115 6640 C 6104 6623 6029 6206 6032 6180 C 6035 6157 6039 6155 6090 6152 C 6120 6151 6151 6154 6158 6159 C 6166 6164 6182 6223 6196 6295 C 6209 6366 6222 6426 6225 6429 C 6234 6437 6245 6420 6325 6283 L 6402 6150 L 6465 6150 C 6504 6150 6532 6155 6538 6163 C 6552 6180 6633 6617 6626 6636 C 6619 6654 6507 6655 6492 6638 C 6486 6631 6477 6596 6471 6560 C 6448 6432 6438 6390 6430 6390 C 6426 6390 6389 6448 6349 6520 L 6275 6650 L 6198 6650 C 6156 6650 6119 6646 6115 6640 z" stroke-linecap="round" />
</g>
		<g transform="matrix(0.1 0 0 -0.1 -140.49 160.18)"  >
<path style="stroke: none; stroke-width: 1; stroke-dasharray: none; stroke-linecap: butt; stroke-dashoffset: 0; stroke-linejoin: miter; stroke-miterlimit: 4; fill: rgb(240,241,243); fill-rule: nonzero; opacity: 1;" vector-effect="non-scaling-stroke"  transform=" translate(-6896.38, -6398.8)" d="M 6785 6638 C 6713 6598 6697 6564 6665 6391 C 6624 6166 6640 6150 6894 6150 C 7070 6150 7065 6148 7076 6235 L 7083 6280 L 6947 6280 C 6868 6280 6809 6284 6805 6290 C 6799 6300 6827 6468 6841 6508 C 6849 6529 6854 6530 6984 6530 C 7135 6530 7138 6531 7142 6601 L 7145 6645 L 6975 6647 C 6864 6649 6798 6646 6785 6638 z" stroke-linecap="round" />
</g>
		<g transform="matrix(0.1 0 0 -0.1 -88.34 160.06)"  >
<path style="stroke: none; stroke-width: 1; stroke-dasharray: none; stroke-linecap: butt; stroke-dashoffset: 0; stroke-linejoin: miter; stroke-miterlimit: 4; fill: rgb(240,241,243); fill-rule: nonzero; opacity: 1;" vector-effect="non-scaling-stroke"  transform=" translate(-7417.88, -6400)" d="M 7226 6641 C 7215 6623 7138 6180 7143 6165 C 7149 6152 7181 6150 7374 6150 C 7498 6150 7601 6154 7604 6159 C 7607 6163 7612 6193 7616 6224 L 7623 6280 L 7466 6280 L 7309 6280 L 7312 6308 L 7315 6335 L 7443 6340 C 7571 6345 7589 6351 7590 6386 C 7590 6392 7593 6412 7596 6429 L 7603 6460 L 7470 6460 L 7338 6460 L 7344 6483 C 7347 6495 7350 6511 7350 6518 C 7350 6527 7389 6530 7509 6530 C 7597 6530 7671 6534 7674 6538 C 7677 6543 7682 6570 7686 6598 L 7693 6650 L 7462 6650 C 7335 6650 7229 6646 7226 6641 z" stroke-linecap="round" />
</g>
		<g transform="matrix(0.1 0 0 -0.1 -0.6 160.06)"  >
<path style="stroke: none; stroke-width: 1; stroke-dasharray: none; stroke-linecap: butt; stroke-dashoffset: 0; stroke-linejoin: miter; stroke-miterlimit: 4; fill: rgb(240,241,243); fill-rule: nonzero; opacity: 1;" vector-effect="non-scaling-stroke"  transform=" translate(-8295.22, -6400)" d="M 8093 6638 C 8087 6631 8069 6546 8051 6450 C 8034 6354 8015 6251 8009 6221 C 7996 6157 8002 6150 8076 6150 C 8137 6150 8146 6158 8161 6229 L 8172 6281 L 8238 6278 L 8305 6275 L 8332 6225 C 8373 6148 8374 6147 8452 6152 C 8490 6155 8524 6161 8528 6164 C 8532 6168 8520 6199 8501 6232 C 8475 6280 8471 6294 8481 6301 C 8489 6306 8498 6310 8502 6310 C 8506 6310 8520 6325 8534 6343 C 8563 6381 8595 6524 8585 6571 C 8581 6587 8565 6611 8548 6625 C 8518 6650 8518 6650 8310 6650 C 8156 6650 8100 6647 8093 6638 z M 8423 6477 C 8421 6405 8413 6400 8300 6400 C 8247 6400 8201 6402 8198 6405 C 8195 6408 8209 6494 8219 6528 C 8220 6529 8266 6529 8323 6528 L 8425 6525 L 8423 6477 z" stroke-linecap="round" />
</g>
		<g transform="matrix(0.1 0 0 -0.1 57.91 160.07)"  >
<path style="stroke: none; stroke-width: 1; stroke-dasharray: none; stroke-linecap: butt; stroke-dashoffset: 0; stroke-linejoin: miter; stroke-miterlimit: 4; fill: rgb(240,241,243); fill-rule: nonzero; opacity: 1;" vector-effect="non-scaling-stroke"  transform=" translate(-8880.3, -6399.94)" d="M 8693 6638 C 8687 6631 8664 6522 8641 6396 C 8607 6213 8602 6165 8612 6159 C 8619 6154 8723 6150 8843 6150 C 9089 6150 9069 6143 9085 6238 L 9092 6280 L 8938 6280 C 8853 6280 8781 6282 8778 6285 C 8775 6288 8775 6302 8778 6315 L 8782 6340 L 8911 6340 C 8981 6340 9041 6344 9044 6348 C 9047 6353 9052 6380 9056 6408 L 9063 6460 L 8936 6460 L 8809 6460 L 8812 6493 L 8815 6525 L 8975 6530 L 9135 6535 L 9146 6587 C 9152 6616 9155 6642 9152 6645 C 9149 6648 9047 6650 8925 6650 C 8759 6650 8700 6647 8693 6638 z" stroke-linecap="round" />
</g>
		<g transform="matrix(0.1 0 0 -0.1 113.93 160)"  >
<path style="stroke: none; stroke-width: 1; stroke-dasharray: none; stroke-linecap: butt; stroke-dashoffset: 0; stroke-linejoin: miter; stroke-miterlimit: 4; fill: rgb(240,241,243); fill-rule: nonzero; opacity: 1;" vector-effect="non-scaling-stroke"  transform=" translate(-9440.56, -6400.67)" d="M 9236 6641 C 9225 6624 9149 6206 9152 6181 C 9155 6157 9159 6155 9211 6152 C 9281 6148 9295 6161 9305 6230 L 9312 6280 L 9454 6280 C 9586 6280 9600 6282 9630 6303 C 9648 6315 9672 6337 9683 6351 C 9720 6402 9743 6557 9720 6601 C 9696 6644 9663 6650 9446 6650 C 9333 6650 9239 6646 9236 6641 z M 9576 6516 C 9583 6498 9561 6417 9546 6408 C 9540 6404 9491 6400 9438 6400 C 9328 6400 9333 6396 9351 6480 L 9362 6530 L 9466 6530 C 9546 6530 9572 6527 9576 6516 z" stroke-linecap="round" />
</g>
		<g transform="matrix(0.1 0 0 -0.1 165.39 159.98)"  >
<path style="stroke: none; stroke-width: 1; stroke-dasharray: none; stroke-linecap: butt; stroke-dashoffset: 0; stroke-linejoin: miter; stroke-miterlimit: 4; fill: rgb(240,241,243); fill-rule: nonzero; opacity: 1;" vector-effect="non-scaling-stroke"  transform=" translate(-9955.16, -6400.8)" d="M 9962 6633 C 9934 6607 9658 6192 9656 6172 C 9655 6158 9666 6154 9725 6152 C 9793 6149 9796 6150 9821 6180 L 9847 6211 L 9971 6208 C 10093 6205 10094 6205 10100 6180 C 10105 6157 10111 6155 10170 6152 C 10206 6151 10242 6154 10250 6159 C 10262 6167 10252 6206 10187 6403 C 10138 6553 10104 6640 10094 6644 C 10061 6657 9982 6650 9962 6633 z M 10033 6390 C 10043 6357 10050 6328 10050 6326 C 10050 6324 10023 6322 9990 6322 C 9957 6323 9930 6327 9930 6332 C 9930 6344 10001 6450 10010 6450 C 10014 6450 10024 6423 10033 6390 z" stroke-linecap="round" />
</g>
		<g transform="matrix(0.1 0 0 -0.1 212.01 160.04)"  >
<path style="stroke: none; stroke-width: 1; stroke-dasharray: none; stroke-linecap: butt; stroke-dashoffset: 0; stroke-linejoin: miter; stroke-miterlimit: 4; fill: rgb(240,241,243); fill-rule: nonzero; opacity: 1;" vector-effect="non-scaling-stroke"  transform=" translate(-10421.37, -6400.19)" d="M 10391 6628 C 10386 6615 10371 6549 10359 6480 C 10347 6411 10329 6315 10320 6265 C 10308 6205 10306 6171 10313 6163 C 10324 6148 10418 6146 10439 6159 C 10453 6168 10543 6628 10533 6642 C 10531 6647 10500 6650 10464 6650 C 10407 6650 10399 6648 10391 6628 z" stroke-linecap="round" />
</g>
		<g transform="matrix(0.1 0 0 -0.1 253.2 160.09)"  >
<path style="stroke: none; stroke-width: 1; stroke-dasharray: none; stroke-linecap: butt; stroke-dashoffset: 0; stroke-linejoin: miter; stroke-miterlimit: 4; fill: rgb(240,241,243); fill-rule: nonzero; opacity: 1;" vector-effect="non-scaling-stroke"  transform=" translate(-10833.25, -6399.78)" d="M 10625 6638 C 10622 6631 10612 6580 10601 6525 C 10552 6266 10538 6180 10543 6166 C 10550 6148 10644 6143 10670 6160 C 10678 6165 10690 6193 10695 6222 L 10705 6275 L 10772 6278 L 10838 6281 L 10872 6218 L 10905 6155 L 10975 6154 C 11049 6153 11070 6156 11070 6171 C 11070 6176 11057 6202 11040 6228 C 11004 6287 11003 6293 11033 6309 C 11072 6331 11093 6371 11111 6462 C 11128 6541 11128 6555 11116 6585 C 11091 6644 11066 6650 10835 6650 C 10680 6650 10628 6647 10625 6638 z M 10962 6481 C 10957 6402 10953 6400 10834 6400 L 10728 6400 L 10734 6438 C 10738 6458 10743 6488 10746 6503 L 10752 6531 L 10858 6528 L 10965 6525 L 10962 6481 z" stroke-linecap="round" />
</g>
</g>
</g>
</svg>