<svg xmlns="http://www.w3.org/2000/svg" version="1.0" preserveAspectRatio="xMidYMid meet" transform="matrix(1, 0, 0, 1, 0, 0)" viewBox="287.28 607 1085.69 385.87">

<g transform="translate(0.000000,1600.000000) scale(0.100000,-0.100000)" fill="#03167a" stroke="none">
<path d="M4844 9678 c-120 -139 -331 -383 -468 -543 -138 -159 -305 -354 -373 -432 -68 -79 -121 -143 -119 -143 3 0 65 30 138 66 303 152 539 221 792 233 l140 6 95 131 c53 72 141 193 196 269 67 92 101 131 103 118 1 -10 -18 -124 -43 -254 -25 -130 -45 -242 -45 -248 0 -8 97 -11 338 -11 l337 0 103 513 c56 281 102 520 102 530 0 16 -32 17 -539 17 l-540 0 -217 -252z" fill="#03167a"/>
<path d="M6266 9922 c-2 -4 -41 -192 -86 -417 -45 -226 -92 -462 -105 -525 -18 -86 -21 -116 -12 -122 7 -5 167 -7 356 -6 l344 3 43 195 c24 107 46 201 49 208 4 11 41 13 193 10 212 -5 253 -15 328 -81 53 -47 68 -89 62 -182 -8 -126 -66 -202 -185 -243 -44 -16 -151 -17 -1258 -17 -1262 0 -1238 0 -1440 -44 -193 -43 -440 -142 -610 -246 -471 -287 -781 -780 -885 -1407 -11 -68 -22 -135 -25 -150 l-5 -28 335 0 335 0 0 79 c0 290 128 593 333 788 156 148 326 236 567 296 84 21 107 21 1485 27 l1400 5 96 27 c292 80 512 259 628 510 64 138 86 247 85 423 0 133 -4 160 -27 238 -50 163 -117 269 -250 393 -156 146 -342 230 -582 263 -89 13 -1161 15 -1169 3z" fill="#03167a"/>
<path d="M11721 7944 c-47 -40 -32 8 -185 -587 -43 -165 -44 -190 -11 -222 l24 -25 482 0 c457 0 481 1 468 18 -7 9 -39 44 -71 78 l-59 61 69 259 69 259 89 3 c81 2 94 0 144 -25 39 -20 64 -42 87 -76 51 -76 51 -110 4 -286 -23 -84 -41 -156 -41 -161 0 -5 110 -10 244 -12 243 -3 245 -3 270 -27 15 -14 26 -36 26 -50 0 -14 -18 -95 -42 -178 l-42 -153 -292 0 -292 0 -11 -32 c-6 -18 -35 -132 -66 -253 -30 -121 -58 -230 -61 -242 -6 -21 -12 -23 -83 -23 -131 1 -193 26 -241 99 -38 57 -37 115 4 289 20 84 36 155 36 158 0 2 -178 3 -396 2 l-396 -3 -32 -35 c-27 -30 -37 -58 -71 -195 -49 -196 -50 -259 -9 -342 31 -61 83 -110 153 -145 l46 -23 780 -3 c548 -2 795 0 832 8 113 25 186 103 223 243 11 45 27 102 34 127 15 50 19 63 111 405 36 132 74 272 85 310 10 39 35 131 55 205 21 74 46 165 56 201 41 143 14 260 -75 334 -83 68 -35 65 -1006 65 l-878 0 -31 -26z" fill="#03167a"/>
<path d="M5050 7868 c-6 -29 -20 -98 -30 -153 -10 -55 -50 -265 -89 -466 -39 -202 -71 -369 -71 -373 0 -3 150 -6 334 -6 l334 0 62 318 c34 174 79 407 101 517 21 110 39 203 39 208 0 4 -150 7 -334 7 l-334 0 -12 -52z" fill="#03167a"/>
<path d="M5831 7742 c-18 -97 -40 -208 -47 -247 -7 -38 -36 -187 -64 -330 -27 -143 -50 -268 -50 -277 0 -17 22 -18 328 -18 253 0 332 3 346 13 18 13 18 14 105 462 23 116 55 281 72 368 29 148 30 159 15 182 l-16 25 -328 0 -327 0 -34 -178z" fill="#03167a"/>
<path d="M9035 7901 c-45 -19 -42 -8 -135 -511 -54 -295 -56 -314 -39 -375 14 -51 93 -130 146 -144 23 -7 165 -11 365 -11 307 0 331 1 383 21 71 26 156 104 189 172 28 59 148 681 150 777 1 74 -13 81 -161 78 -97 -3 -115 -6 -133 -23 -21 -22 -28 -54 -100 -445 -22 -124 -44 -238 -48 -255 l-8 -30 -227 -3 c-225 -2 -227 -2 -227 19 0 11 20 132 46 267 73 399 75 412 69 433 -4 11 -16 24 -27 28 -29 11 -219 12 -243 2z" fill="#03167a"/>
<path d="M6752 7880 c-12 -11 -22 -24 -22 -28 0 -4 -20 -115 -45 -247 -24 -132 -63 -345 -86 -472 -53 -292 -62 -273 123 -273 151 0 160 5 178 97 6 32 17 81 23 108 l12 50 270 1 c249 1 274 3 325 22 78 31 153 99 189 175 42 87 88 353 72 413 -15 56 -48 103 -99 139 l-44 30 -437 3 c-430 3 -437 2 -459 -18z m687 -264 c15 -18 -14 -183 -36 -208 -14 -16 -38 -18 -220 -18 l-203 0 4 23 c3 12 12 60 21 107 9 47 18 91 20 98 7 19 398 17 414 -2z" fill="#03167a"/>
<path d="M7993 7881 c-14 -13 -25 -46 -37 -108 -59 -320 -87 -476 -111 -603 -14 -80 -30 -167 -35 -193 -14 -66 -13 -83 6 -101 13 -14 67 -16 433 -16 l418 0 21 23 c30 32 63 217 43 241 -12 14 -47 16 -270 16 -141 0 -262 4 -270 9 -11 7 -9 31 12 147 15 77 34 180 42 229 9 50 25 133 36 187 22 111 24 159 7 176 -8 8 -54 12 -143 12 -115 0 -134 -2 -152 -19z" fill="#03167a"/>
<path d="M10435 7882 c-132 -55 -196 -134 -229 -279 -34 -153 -13 -245 72 -310 60 -46 113 -53 394 -53 l251 0 -6 -36 c-11 -67 6 -64 -377 -64 -408 0 -381 7 -405 -110 -9 -41 -16 -89 -17 -107 -2 -65 -18 -63 431 -63 357 1 412 3 453 18 145 53 227 178 245 373 5 57 2 74 -19 121 -15 32 -40 66 -61 82 -65 50 -107 56 -389 56 l-258 0 0 29 c0 16 4 41 10 55 l10 26 341 0 341 0 28 28 c21 22 30 44 40 102 16 93 16 116 0 135 -11 13 -68 15 -414 14 -353 0 -406 -2 -441 -17z" fill="#03167a"/>
<path d="M3173 6628 c-11 -13 -84 -118 -163 -235 -92 -136 -141 -217 -137 -227 5 -12 22 -16 73 -16 61 0 68 2 92 30 l26 30 121 0 121 0 11 -30 c12 -31 12 -31 80 -28 61 3 68 5 71 24 3 24 -122 416 -144 452 -12 19 -23 22 -72 22 -48 0 -62 -4 -79 -22z m89 -280 c3 -22 0 -23 -59 -24 -35 0 -63 1 -63 3 0 2 19 32 42 66 l41 61 18 -41 c10 -23 19 -52 21 -65z" fill="#03167a"/>
<path d="M3613 6638 c-6 -7 -24 -92 -42 -188 -17 -96 -36 -199 -42 -229 -13 -64 -7 -71 67 -71 61 0 70 8 85 78 l11 52 135 0 c199 0 240 27 269 176 18 97 12 135 -27 168 l-31 26 -208 0 c-154 0 -210 -3 -217 -12z m330 -161 c-2 -72 -10 -77 -123 -77 -53 0 -99 2 -102 5 -3 3 11 89 21 123 1 1 47 1 104 0 l102 -3 -2 -48z" fill="#03167a"/>
<path d="M4196 6641 c-11 -17 -87 -435 -84 -460 3 -23 8 -26 47 -29 79 -6 89 1 102 68 l12 60 142 0 c131 0 145 2 175 23 18 12 42 34 53 48 38 52 61 218 35 251 -37 45 -53 48 -270 48 -114 0 -209 -4 -212 -9z m340 -125 c7 -18 -15 -99 -30 -108 -6 -4 -55 -8 -108 -8 -110 0 -105 -4 -87 80 l11 50 104 0 c80 0 106 -3 110 -14z" fill="#03167a"/>
<path d="M4786 6641 c-11 -18 -88 -461 -83 -476 9 -22 388 -23 410 0 17 16 32 89 22 105 -4 6 -57 10 -136 10 -96 0 -129 3 -129 13 0 6 14 85 30 175 17 90 28 168 25 173 -8 11 -132 12 -139 0z" fill="#03167a"/>
<path d="M5266 6641 c-11 -18 -88 -461 -83 -476 9 -21 110 -21 131 1 9 8 16 19 16 23 0 4 18 105 40 225 22 119 38 222 35 227 -8 11 -132 12 -139 0z" fill="#03167a"/>
<path d="M5683 6633 c-35 -30 -314 -455 -309 -470 4 -9 26 -13 75 -13 66 0 71 2 93 30 l24 31 124 -3 c123 -3 124 -3 130 -28 5 -23 11 -25 70 -28 107 -4 106 -15 15 255 l-80 238 -61 3 c-47 2 -65 -1 -81 -15z m70 -243 c10 -33 17 -61 17 -63 0 -2 -27 -4 -60 -4 -33 0 -60 4 -60 9 0 11 73 117 81 118 3 0 13 -27 22 -60z" fill="#03167a"/>
<path d="M6115 6640 c-11 -17 -86 -434 -83 -460 3 -23 7 -25 58 -28 30 -1 61 2 68 7 8 5 24 64 38 136 13 71 26 131 29 134 9 8 20 -9 100 -146 l77 -133 63 0 c39 0 67 5 73 13 14 17 95 454 88 473 -7 18 -119 19 -134 2 -6 -7 -15 -42 -21 -78 -23 -128 -33 -170 -41 -170 -4 0 -41 58 -81 130 l-74 130 -77 0 c-42 0 -79 -4 -83 -10z" fill="#03167a"/>
<path d="M6785 6638 c-72 -40 -88 -74 -120 -247 -41 -225 -25 -241 229 -241 176 0 171 -2 182 85 l7 45 -136 0 c-79 0 -138 4 -142 10 -6 10 22 178 36 218 8 21 13 22 143 22 151 0 154 1 158 71 l3 44 -170 2 c-111 2 -177 -1 -190 -9z" fill="#03167a"/>
<path d="M7226 6641 c-11 -18 -88 -461 -83 -476 6 -13 38 -15 231 -15 124 0 227 4 230 9 3 4 8 34 12 65 l7 56 -157 0 -157 0 3 28 3 27 128 5 c128 5 146 11 147 46 0 6 3 26 6 43 l7 31 -133 0 -132 0 6 23 c3 12 6 28 6 35 0 9 39 12 159 12 88 0 162 4 165 8 3 5 8 32 12 60 l7 52 -231 0 c-127 0 -233 -4 -236 -9z" fill="#03167a"/>
<path d="M8093 6638 c-6 -7 -24 -92 -42 -188 -17 -96 -36 -199 -42 -229 -13 -64 -7 -71 67 -71 61 0 70 8 85 79 l11 52 66 -3 67 -3 27 -50 c41 -77 42 -78 120 -73 38 3 72 9 76 12 4 4 -8 35 -27 68 -26 48 -30 62 -20 69 8 5 17 9 21 9 4 0 18 15 32 33 29 38 61 181 51 228 -4 16 -20 40 -37 54 -30 25 -30 25 -238 25 -154 0 -210 -3 -217 -12z m330 -161 c-2 -72 -10 -77 -123 -77 -53 0 -99 2 -102 5 -3 3 11 89 21 123 1 1 47 1 104 0 l102 -3 -2 -48z" fill="#03167a"/>
<path d="M8693 6638 c-6 -7 -29 -116 -52 -242 -34 -183 -39 -231 -29 -237 7 -5 111 -9 231 -9 246 0 226 -7 242 88 l7 42 -154 0 c-85 0 -157 2 -160 5 -3 3 -3 17 0 30 l4 25 129 0 c70 0 130 4 133 8 3 5 8 32 12 60 l7 52 -127 0 -127 0 3 33 3 32 160 5 160 5 11 52 c6 29 9 55 6 58 -3 3 -105 5 -227 5 -166 0 -225 -3 -232 -12z" fill="#03167a"/>
<path d="M9236 6641 c-11 -17 -87 -435 -84 -460 3 -24 7 -26 59 -29 70 -4 84 9 94 78 l7 50 142 0 c132 0 146 2 176 23 18 12 42 34 53 48 37 51 60 206 37 250 -24 43 -57 49 -274 49 -113 0 -207 -4 -210 -9z m340 -125 c7 -18 -15 -99 -30 -108 -6 -4 -55 -8 -108 -8 -110 0 -105 -4 -87 80 l11 50 104 0 c80 0 106 -3 110 -14z" fill="#03167a"/>
<path d="M9962 6633 c-28 -26 -304 -441 -306 -461 -1 -14 10 -18 69 -20 68 -3 71 -2 96 28 l26 31 124 -3 c122 -3 123 -3 129 -28 5 -23 11 -25 70 -28 36 -1 72 2 80 7 12 8 2 47 -63 244 -49 150 -83 237 -93 241 -33 13 -112 6 -132 -11z m71 -243 c10 -33 17 -62 17 -64 0 -2 -27 -4 -60 -4 -33 1 -60 5 -60 10 0 12 71 118 80 118 4 0 14 -27 23 -60z" fill="#03167a"/>
<path d="M10391 6628 c-5 -13 -20 -79 -32 -148 -12 -69 -30 -165 -39 -215 -12 -60 -14 -94 -7 -102 11 -15 105 -17 126 -4 14 9 104 469 94 483 -2 5 -33 8 -69 8 -57 0 -65 -2 -73 -22z" fill="#03167a"/>
<path d="M10625 6638 c-3 -7 -13 -58 -24 -113 -49 -259 -63 -345 -58 -359 7 -18 101 -23 127 -6 8 5 20 33 25 62 l10 53 67 3 66 3 34 -63 33 -63 70 -1 c74 -1 95 2 95 17 0 5 -13 31 -30 57 -36 59 -37 65 -7 81 39 22 60 62 78 153 17 79 17 93 5 123 -25 59 -50 65 -281 65 -155 0 -207 -3 -210 -12z m337 -157 c-5 -79 -9 -81 -128 -81 l-106 0 6 38 c4 20 9 50 12 65 l6 28 106 -3 107 -3 -3 -44z" fill="#03167a"/>
</g>
</svg>